Hermit-Bold.ufo
<glyph name="exclam" format="1">
  <advance width="618"/>
  <unicode hex="0021"/>
  <note>
    exclam
  </note>
  <outline>
    <contour>
      <point x="374" y="240" type="line"/>
      <point x="374" y="750" type="line"/>
      <point x="244" y="750" type="line"/>
      <point x="244" y="240" type="line"/>
    </contour>
    <contour>
      <point x="365" y="-100"/>
      <point x="419" y="-50"/>
      <point x="419" y="0" type="curve" smooth="yes"/>
      <point x="419" y="50"/>
      <point x="365" y="100"/>
      <point x="309" y="100" type="curve" smooth="yes"/>
      <point x="253" y="100"/>
      <point x="199" y="51"/>
      <point x="199" y="0" type="curve" smooth="yes"/>
      <point x="199" y="-51"/>
      <point x="253" y="-100"/>
      <point x="309" y="-100" type="curve" smooth="yes"/>
    </contour>
  </outline>
</glyph>
<glyph name="parenleft" format="1">
  <advance width="618"/>
  <unicode hex="0028"/>
  <note>
    parenleft
  </note>
  <outline>
    <contour>
      <point x="521" y="1" type="line"/>
      <point x="229" y="0"/>
      <point x="228" y="316"/>
      <point x="228" y="320" type="curve" smooth="yes"/>
      <point x="228" y="324"/>
      <point x="229" y="639"/>
      <point x="521" y="639" type="curve"/>
      <point x="521" y="750" type="line"/>
      <point x="98" y="750"/>
      <point x="97" y="320"/>
      <point x="97" y="320" type="curve" smooth="yes"/>
      <point x="97" y="320"/>
      <point x="98" y="-110"/>
      <point x="521" y="-110" type="curve"/>
    </contour>
  </outline>
</glyph>
<glyph name="two" format="1">
  <advance width="618"/>
  <unicode hex="0032"/>
  <note>
    two
  </note>
  <outline>
    <contour>
      <point x="560" y="0" type="line"/>
      <point x="560" y="110" type="line"/>
      <point x="254" y="110" type="line"/>
      <point x="328" y="171"/>
      <point x="560" y="368"/>
      <point x="560" y="500" type="curve" smooth="yes"/>
      <point x="560" y="610"/>
      <point x="559" y="750"/>
      <point x="309" y="750" type="curve" smooth="yes"/>
      <point x="52" y="750"/>
      <point x="58" y="612"/>
      <point x="58" y="490" type="curve"/>
      <point x="188" y="490" type="line"/>
      <point x="188" y="562"/>
      <point x="183" y="640"/>
      <point x="309" y="640" type="curve" smooth="yes"/>
      <point x="429" y="640"/>
      <point x="430" y="572"/>
      <point x="430" y="500" type="curve" smooth="yes"/>
      <point x="430" y="368"/>
      <point x="68" y="118"/>
      <point x="58" y="101" type="curve"/>
      <point x="58" y="0" type="line"/>
    </contour>
  </outline>
</glyph>
<glyph name="six" format="1">
  <advance width="618"/>
  <unicode hex="0036"/>
  <note>
    six
  </note>
  <outline>
    <contour>
      <point x="461" y="0"/>
      <point x="560" y="90"/>
      <point x="560" y="237" type="curve" smooth="yes"/>
      <point x="560" y="384"/>
      <point x="460" y="475"/>
      <point x="309" y="475" type="curve" smooth="yes"/>
      <point x="269" y="475"/>
      <point x="223" y="461"/>
      <point x="190" y="445" type="curve"/>
      <point x="190" y="587"/>
      <point x="238" y="640"/>
      <point x="309" y="640" type="curve" smooth="yes"/>
      <point x="387" y="640"/>
      <point x="418" y="622"/>
      <point x="418" y="587" type="curve"/>
      <point x="528" y="587" type="line"/>
      <point x="528" y="684"/>
      <point x="440" y="750"/>
      <point x="309" y="750" type="curve" smooth="yes"/>
      <point x="136" y="750"/>
      <point x="58" y="638"/>
      <point x="58" y="375" type="curve" smooth="yes"/>
      <point x="58" y="237" type="line" smooth="yes"/>
      <point x="58" y="90"/>
      <point x="157" y="0"/>
      <point x="309" y="0" type="curve" smooth="yes"/>
    </contour>
    <contour>
      <point x="231" y="110"/>
      <point x="188" y="152"/>
      <point x="188" y="237" type="curve" smooth="yes"/>
      <point x="188" y="323"/>
      <point x="231" y="365"/>
      <point x="309" y="365" type="curve" smooth="yes"/>
      <point x="387" y="365"/>
      <point x="430" y="323"/>
      <point x="430" y="237" type="curve" smooth="yes"/>
      <point x="430" y="152"/>
      <point x="387" y="110"/>
      <point x="309" y="110" type="curve" smooth="yes"/>
    </contour>
  </outline>
</glyph>
<glyph name="A" format="1">
  <advance width="618"/>
  <unicode hex="0041"/>
  <note>
    A
  </note>
  <outline>
    <contour>
      <point x="189" y="0" type="line"/>
      <point x="239" y="195" type="line"/>
      <point x="379" y="195" type="line"/>
      <point x="429" y="0" type="line"/>
      <point x="562" y="0" type="line"/>
      <point x="375" y="750" type="line"/>
      <point x="243" y="750" type="line"/>
      <point x="56" y="0" type="line"/>
    </contour>
    <contour>
      <point x="309" y="482" type="line"/>
      <point x="353" y="305" type="line"/>
      <point x="265" y="305" type="line"/>
    </contour>
    <contour>
      <point x="562" y="0" type="move" name="ogonek"/>
    </contour>
    <contour>
      <point x="309" y="0" type="move" name="bottom"/>
    </contour>
    <contour>
      <point x="309" y="750" type="move" name="top"/>
    </contour>
  </outline>
</glyph>
<glyph name="B" format="1">
  <advance width="618"/>
  <unicode hex="0042"/>
  <note>
    B
  </note>
  <outline>
    <contour>
      <point x="309" y="0" type="line" smooth="yes"/>
      <point x="559" y="0"/>
      <point x="560" y="242"/>
      <point x="560" y="243" type="curve" smooth="yes"/>
      <point x="560" y="244"/>
      <point x="559" y="359"/>
      <point x="457" y="425" type="curve"/>
      <point x="494" y="453"/>
      <point x="514" y="496"/>
      <point x="515" y="551" type="curve"/>
      <point x="515" y="551"/>
      <point x="515" y="750"/>
      <point x="309" y="750" type="curve" smooth="yes"/>
      <point x="58" y="750" type="line"/>
      <point x="58" y="0" type="line"/>
    </contour>
    <contour>
      <point x="188" y="376" type="line"/>
      <point x="309" y="376" type="line" smooth="yes"/>
      <point x="429" y="376"/>
      <point x="430" y="242"/>
      <point x="430" y="243" type="curve" smooth="yes"/>
      <point x="430" y="244"/>
      <point x="429" y="110"/>
      <point x="309" y="110" type="curve" smooth="yes"/>
      <point x="188" y="110" type="line"/>
    </contour>
    <contour>
      <point x="188" y="640" type="line"/>
      <point x="309" y="640" type="line" smooth="yes"/>
      <point x="385" y="640"/>
      <point x="385" y="551"/>
      <point x="385" y="551" type="curve" smooth="yes"/>
      <point x="385" y="551"/>
      <point x="385" y="463"/>
      <point x="309" y="463" type="curve" smooth="yes"/>
      <point x="188" y="463" type="line"/>
    </contour>
    <contour>
      <point x="309" y="750" type="move" name="top"/>
    </contour>
    <contour>
      <point x="309" y="0" type="move" name="bottom"/>
    </contour>
  </outline>
</glyph>
<glyph name="H" format="1">
  <advance width="618"/>
  <unicode hex="0048"/>
  <note>
    H
  </note>
  <outline>
    <contour>
      <point x="188" y="0" type="line"/>
      <point x="188" y="320" type="line"/>
      <point x="430" y="320" type="line"/>
      <point x="430" y="0" type="line"/>
      <point x="560" y="0" type="line"/>
      <point x="560" y="750" type="line"/>
      <point x="430" y="750" type="line"/>
      <point x="430" y="430" type="line"/>
      <point x="188" y="430" type="line"/>
      <point x="188" y="750" type="line"/>
      <point x="58" y="750" type="line"/>
      <point x="58" y="0" type="line"/>
    </contour>
    <contour>
      <point x="309" y="0" type="move" name="bottom"/>
    </contour>
    <contour>
      <point x="309" y="750" type="move" name="top"/>
    </contour>
    <contour>
      <point x="20" y="750" type="move" name="topleft"/>
    </contour>
    <contour>
      <point x="309" y="375" type="move" name="center"/>
    </contour>
  </outline>
</glyph>
<glyph name="I" format="1">
  <advance width="618"/>
  <unicode hex="0049"/>
  <note>
    I
  </note>
  <outline>
    <contour>
      <point x="540" y="0" type="line"/>
      <point x="540" y="110" type="line"/>
      <point x="374" y="110" type="line"/>
      <point x="374" y="640" type="line"/>
      <point x="540" y="640" type="line"/>
      <point x="540" y="750" type="line"/>
      <point x="78" y="750" type="line"/>
      <point x="78" y="640" type="line"/>
      <point x="244" y="640" type="line"/>
      <point x="244" y="110" type="line"/>
      <point x="78" y="110" type="line"/>
      <point x="78" y="0" type="line"/>
    </contour>
    <contour>
      <point x="540" y="0" type="move" name="ogonek"/>
    </contour>
    <contour>
      <point x="308" y="750" type="move" name="top"/>
    </contour>
    <contour>
      <point x="20" y="750" type="move" name="topleft"/>
    </contour>
    <contour>
      <point x="308" y="0" type="move" name="bottom"/>
    </contour>
  </outline>
</glyph>
<glyph name="O" format="1">
  <advance width="618"/>
  <unicode hex="004F"/>
  <note>
    O
  </note>
  <outline>
    <contour>
      <point x="449" y="0"/>
      <point x="560" y="0"/>
      <point x="560" y="375" type="curve" smooth="yes"/>
      <point x="560" y="750"/>
      <point x="449" y="750"/>
      <point x="309" y="750" type="curve" smooth="yes"/>
      <point x="169" y="750"/>
      <point x="58" y="750"/>
      <point x="58" y="375" type="curve" smooth="yes"/>
      <point x="58" y="0"/>
      <point x="169" y="0"/>
      <point x="309" y="0" type="curve" smooth="yes"/>
    </contour>
    <contour>
      <point x="208" y="110"/>
      <point x="188" y="148"/>
      <point x="188" y="375" type="curve" smooth="yes"/>
      <point x="188" y="602"/>
      <point x="208" y="640"/>
      <point x="309" y="640" type="curve" smooth="yes"/>
      <point x="410" y="640"/>
      <point x="430" y="601"/>
      <point x="430" y="375" type="curve" smooth="yes"/>
      <point x="430" y="149"/>
      <point x="410" y="110"/>
      <point x="309" y="110" type="curve" smooth="yes"/>
    </contour>
    <contour>
      <point x="309" y="0" type="move" name="bottom"/>
    </contour>
    <contour>
      <point x="555" y="10" type="move" name="ogonek"/>
    </contour>
    <contour>
      <point x="309" y="750" type="move" name="top"/>
    </contour>
    <contour>
      <point x="597" y="750" type="move" name="topright"/>
    </contour>
    <contour>
      <point x="20" y="750" type="move" name="topleft"/>
    </contour>
    <contour>
      <point x="309" y="375" type="move" name="center"/>
    </contour>
  </outline>
</glyph>
<glyph name="S" format="1">
  <advance width="618"/>
  <unicode hex="0053"/>
  <note>
    S
  </note>
  <outline>
    <contour>
      <point x="449" y="-2"/>
      <point x="560" y="2"/>
      <point x="560" y="236" type="curve" smooth="yes"/>
      <point x="560" y="412"/>
      <point x="509" y="452"/>
      <point x="309" y="452" type="curve" smooth="yes"/>
      <point x="191" y="452"/>
      <point x="188" y="450"/>
      <point x="188" y="558" type="curve" smooth="yes"/>
      <point x="188" y="638"/>
      <point x="219" y="642"/>
      <point x="309" y="642" type="curve" smooth="yes"/>
      <point x="399" y="642"/>
      <point x="430" y="633"/>
      <point x="430" y="556" type="curve"/>
      <point x="560" y="556" type="line"/>
      <point x="564" y="688"/>
      <point x="488" y="752"/>
      <point x="309" y="752" type="curve" smooth="yes"/>
      <point x="169" y="752"/>
      <point x="58" y="748"/>
      <point x="58" y="558" type="curve" smooth="yes"/>
      <point x="58" y="338"/>
      <point x="169" y="342"/>
      <point x="309" y="342" type="curve" smooth="yes"/>
      <point x="399" y="342"/>
      <point x="430" y="333"/>
      <point x="430" y="236" type="curve" smooth="yes"/>
      <point x="430" y="112"/>
      <point x="399" y="108"/>
      <point x="309" y="108" type="curve" smooth="yes"/>
      <point x="210" y="108"/>
      <point x="186" y="117"/>
      <point x="188" y="194" type="curve"/>
      <point x="58" y="194" type="line"/>
      <point x="54" y="2"/>
      <point x="167" y="-2"/>
      <point x="309" y="-2" type="curve" smooth="yes"/>
    </contour>
    <contour>
      <point x="309" y="750" type="move" name="top"/>
    </contour>
    <contour>
      <point x="309" y="0" type="move" name="bottom"/>
    </contour>
  </outline>
</glyph>
<glyph name="U" format="1">
  <advance width="618"/>
  <unicode hex="0055"/>
  <note>
    U
  </note>
  <outline>
    <contour>
      <point x="554" y="0"/>
      <point x="560" y="7"/>
      <point x="560" y="240" type="curve" smooth="yes"/>
      <point x="560" y="750" type="line"/>
      <point x="430" y="750" type="line"/>
      <point x="430" y="240" type="line" smooth="yes"/>
      <point x="430" y="114"/>
      <point x="430" y="110"/>
      <point x="309" y="110" type="curve" smooth="yes"/>
      <point x="189" y="110"/>
      <point x="188" y="240"/>
      <point x="188" y="240" type="curve"/>
      <point x="188" y="750" type="line"/>
      <point x="58" y="750" type="line"/>
      <point x="58" y="240" type="line"/>
      <point x="58" y="240"/>
      <point x="59" y="0"/>
      <point x="309" y="0" type="curve" smooth="yes"/>
    </contour>
    <contour>
      <point x="496" y="22" type="move" name="ogonek"/>
    </contour>
    <contour>
      <point x="309" y="750" type="move" name="top"/>
    </contour>
    <contour>
      <point x="597" y="750" type="move" name="topright"/>
    </contour>
    <contour>
      <point x="309" y="0" type="move" name="bottom"/>
    </contour>
  </outline>
</glyph>
<glyph name="V" format="1">
  <advance width="618"/>
  <unicode hex="0056"/>
  <note>
    V
  </note>
  <outline>
    <contour>
      <point x="375" y="0" type="line"/>
      <point x="562" y="750" type="line"/>
      <point x="429" y="750" type="line"/>
      <point x="309" y="268" type="line"/>
      <point x="189" y="750" type="line"/>
      <point x="56" y="750" type="line"/>
      <point x="243" y="0" type="line"/>
    </contour>
    <contour>
      <point x="309" y="750" type="move" name="top"/>
    </contour>
    <contour>
      <point x="309" y="0" type="move" name="bottom"/>
    </contour>
  </outline>
</glyph>
<glyph name="Y" format="1">
  <advance width="618"/>
  <unicode hex="0059"/>
  <note>
    Y
  </note>
  <outline>
    <contour>
      <point x="374" y="0" type="line"/>
      <point x="374" y="375" type="line"/>
      <point x="565" y="750" type="line"/>
      <point x="424" y="750" type="line"/>
      <point x="309" y="517" type="line"/>
      <point x="193" y="750" type="line"/>
      <point x="53" y="750" type="line"/>
      <point x="244" y="375" type="line"/>
      <point x="244" y="0" type="line"/>
    </contour>
    <contour>
      <point x="309" y="750" type="move" name="top"/>
    </contour>
    <contour>
      <point x="309" y="0" type="move" name="bottom"/>
    </contour>
    <contour>
      <point x="20" y="750" type="move" name="topleft"/>
    </contour>
  </outline>
</glyph>
<glyph name="a" format="1">
  <advance width="618"/>
  <unicode hex="0061"/>
  <note>
    a
  </note>
  <outline>
    <contour>
      <point x="560" y="-1" type="line"/>
      <point x="560" y="295" type="line" smooth="yes"/>
      <point x="560" y="338"/>
      <point x="545" y="500"/>
      <point x="309" y="500" type="curve" smooth="yes"/>
      <point x="222" y="500"/>
      <point x="141" y="464"/>
      <point x="80" y="433" type="curve"/>
      <point x="132" y="337" type="line"/>
      <point x="191" y="365"/>
      <point x="227" y="390"/>
      <point x="309" y="390" type="curve" smooth="yes"/>
      <point x="391" y="390"/>
      <point x="427" y="373"/>
      <point x="430" y="305" type="curve"/>
      <point x="309" y="305" type="line" smooth="yes"/>
      <point x="130" y="305"/>
      <point x="58" y="267"/>
      <point x="58" y="153" type="curve" smooth="yes"/>
      <point x="58" y="47"/>
      <point x="142" y="-1"/>
      <point x="309" y="-1" type="curve" smooth="yes"/>
    </contour>
    <contour>
      <point x="211" y="110"/>
      <point x="188" y="122"/>
      <point x="188" y="153" type="curve" smooth="yes"/>
      <point x="188" y="192"/>
      <point x="212" y="195"/>
      <point x="309" y="195" type="curve" smooth="yes"/>
      <point x="430" y="195" type="line"/>
      <point x="430" y="110" type="line"/>
      <point x="309" y="110" type="line" smooth="yes"/>
    </contour>
    <contour>
      <point x="539" y="0" type="move" name="ogonek"/>
    </contour>
    <contour>
      <point x="309" y="0" type="move" name="bottom"/>
    </contour>
    <contour>
      <point x="309" y="500" type="move" name="top"/>
    </contour>
  </outline>
</glyph>
<glyph name="c" format="1">
  <advance width="618"/>
  <unicode hex="0063"/>
  <note>
    c
  </note>
  <outline>
    <contour>
      <point x="401" y="0"/>
      <point x="560" y="0"/>
      <point x="560" y="180" type="curve"/>
      <point x="430" y="180" type="line"/>
      <point x="430" y="126"/>
      <point x="403" y="110"/>
      <point x="311" y="110" type="curve" smooth="yes"/>
      <point x="309" y="110" type="line" smooth="yes"/>
      <point x="237" y="110"/>
      <point x="188" y="160"/>
      <point x="188" y="250" type="curve" smooth="yes"/>
      <point x="188" y="340"/>
      <point x="237" y="390"/>
      <point x="309" y="390" type="curve" smooth="yes"/>
      <point x="311" y="390" type="line" smooth="yes"/>
      <point x="403" y="390"/>
      <point x="430" y="374"/>
      <point x="430" y="320" type="curve"/>
      <point x="560" y="320" type="line"/>
      <point x="560" y="500"/>
      <point x="401" y="500"/>
      <point x="309" y="500" type="curve" smooth="yes"/>
      <point x="154" y="500"/>
      <point x="58" y="412"/>
      <point x="58" y="250" type="curve" smooth="yes"/>
      <point x="58" y="88"/>
      <point x="154" y="0"/>
      <point x="309" y="0" type="curve" smooth="yes"/>
    </contour>
    <contour>
      <point x="309" y="500" type="move" name="top"/>
    </contour>
    <contour>
      <point x="309" y="0" type="move" name="bottom"/>
    </contour>
  </outline>
</glyph>
<glyph name="e" format="1">
  <advance width="618"/>
  <unicode hex="0065"/>
  <note>
    e
  </note>
  <outline>
    <contour>
      <point x="515" y="0" type="line"/>
      <point x="515" y="110" type="line"/>
      <point x="309" y="110" type="line" smooth="yes"/>
      <point x="222" y="110"/>
      <point x="190" y="100"/>
      <point x="188" y="195" type="curve"/>
      <point x="560" y="195" type="line"/>
      <point x="560" y="250" type="line" smooth="yes"/>
      <point x="560" y="510"/>
      <point x="430" y="500"/>
      <point x="309" y="500" type="curve" smooth="yes"/>
      <point x="188" y="500"/>
      <point x="58" y="510"/>
      <point x="58" y="250" type="curve" smooth="yes"/>
      <point x="58" y="0"/>
      <point x="169" y="0"/>
      <point x="309" y="0" type="curve" smooth="yes"/>
    </contour>
    <contour>
      <point x="188" y="390"/>
      <point x="222" y="390"/>
      <point x="309" y="390" type="curve" smooth="yes"/>
      <point x="396" y="390"/>
      <point x="430" y="390"/>
      <point x="430" y="305" type="curve"/>
      <point x="188" y="305" type="line"/>
    </contour>
    <contour>
      <point x="494" y="0" type="move" name="ogonek"/>
    </contour>
    <contour>
      <point x="309" y="0" type="move" name="bottom"/>
    </contour>
    <contour>
      <point x="309" y="500" type="move" name="top"/>
    </contour>
  </outline>
</glyph>
<glyph name="f" format="1">
  <advance width="618"/>
  <unicode hex="0066"/>
  <note>
    f
  </note>
  <outline>
    <contour>
      <point x="335" y="0" type="line"/>
      <point x="335" y="370" type="line"/>
      <point x="504" y="370" type="line"/>
      <point x="504" y="480" type="line"/>
      <point x="335" y="480" type="line"/>
      <point x="335" y="500" type="line" smooth="yes"/>
      <point x="335" y="610"/>
      <point x="354" y="640"/>
      <point x="420" y="640" type="curve" smooth="yes"/>
      <point x="553" y="640" type="line"/>
      <point x="553" y="750" type="line"/>
      <point x="420" y="750" type="line" smooth="yes"/>
      <point x="252" y="750"/>
      <point x="195" y="683"/>
      <point x="195" y="501" type="curve" smooth="yes"/>
      <point x="195" y="480" type="line"/>
      <point x="105" y="480" type="line"/>
      <point x="105" y="370" type="line"/>
      <point x="195" y="370" type="line"/>
      <point x="195" y="0" type="line"/>
    </contour>
    <contour>
      <point x="309" y="500" type="move" name="top"/>
    </contour>
    <contour>
      <point x="309" y="0" type="move" name="bottom"/>
    </contour>
  </outline>
</glyph>
<glyph name="j" format="1">
  <advance width="618"/>
  <unicode hex="006A"/>
  <note>
    j
  </note>
  <outline>
    <contour>
      <point x="332" y="750"/>
      <point x="279" y="701"/>
      <point x="279" y="650" type="curve" smooth="yes"/>
      <point x="279" y="599"/>
      <point x="332" y="550"/>
      <point x="388" y="550" type="curve" smooth="yes"/>
      <point x="444" y="550"/>
      <point x="498" y="600"/>
      <point x="498" y="650" type="curve" smooth="yes"/>
      <point x="498" y="700"/>
      <point x="444" y="750"/>
      <point x="388" y="750" type="curve" smooth="yes"/>
    </contour>
    <component base="jdotless"/>
  </outline>
</glyph>
<glyph name="o" format="1">
  <advance width="618"/>
  <unicode hex="006F"/>
  <note>
    o
  </note>
  <outline>
    <contour>
      <point x="449" y="0"/>
      <point x="560" y="0"/>
      <point x="560" y="250" type="curve" smooth="yes"/>
      <point x="560" y="500"/>
      <point x="449" y="500"/>
      <point x="309" y="500" type="curve" smooth="yes"/>
      <point x="169" y="500"/>
      <point x="58" y="500"/>
      <point x="58" y="250" type="curve" smooth="yes"/>
      <point x="58" y="0"/>
      <point x="169" y="0"/>
      <point x="309" y="0" type="curve" smooth="yes"/>
    </contour>
    <contour>
      <point x="219" y="110"/>
      <point x="188" y="110"/>
      <point x="188" y="250" type="curve" smooth="yes"/>
      <point x="188" y="390"/>
      <point x="219" y="390"/>
      <point x="309" y="390" type="curve" smooth="yes"/>
      <point x="399" y="390"/>
      <point x="430" y="390"/>
      <point x="430" y="250" type="curve" smooth="yes"/>
      <point x="430" y="110"/>
      <point x="399" y="110"/>
      <point x="309" y="110" type="curve" smooth="yes"/>
    </contour>
    <contour>
      <point x="309" y="0" type="move" name="bottom"/>
    </contour>
    <contour>
      <point x="555" y="10" type="move" name="ogonek"/>
    </contour>
    <contour>
      <point x="309" y="500" type="move" name="top"/>
    </contour>
    <contour>
      <point x="597" y="500" type="move" name="topright"/>
    </contour>
    <contour>
      <point x="309" y="250" type="move" name="center"/>
    </contour>
  </outline>
</glyph>
<glyph name="s" format="1">
  <advance width="618"/>
  <unicode hex="0073"/>
  <note>
    s
  </note>
  <outline>
    <contour>
      <point x="449" y="0"/>
      <point x="560" y="0"/>
      <point x="560" y="148" type="curve" smooth="yes"/>
      <point x="560" y="304"/>
      <point x="418" y="305"/>
      <point x="313" y="305" type="curve" smooth="yes"/>
      <point x="300" y="305" type="line" smooth="yes"/>
      <point x="203" y="305"/>
      <point x="188" y="310"/>
      <point x="188" y="352" type="curve" smooth="yes"/>
      <point x="188" y="391"/>
      <point x="203" y="390"/>
      <point x="309" y="390" type="curve" smooth="yes"/>
      <point x="423" y="390"/>
      <point x="430" y="390"/>
      <point x="430" y="342" type="curve"/>
      <point x="560" y="342" type="line"/>
      <point x="560" y="500"/>
      <point x="452" y="500"/>
      <point x="309" y="500" type="curve" smooth="yes"/>
      <point x="169" y="500"/>
      <point x="58" y="500"/>
      <point x="58" y="352" type="curve" smooth="yes"/>
      <point x="58" y="196"/>
      <point x="200" y="195"/>
      <point x="305" y="195" type="curve" smooth="yes"/>
      <point x="318" y="195" type="line" smooth="yes"/>
      <point x="415" y="195"/>
      <point x="430" y="190"/>
      <point x="430" y="148" type="curve" smooth="yes"/>
      <point x="430" y="109"/>
      <point x="415" y="110"/>
      <point x="309" y="110" type="curve" smooth="yes"/>
      <point x="195" y="110"/>
      <point x="188" y="110"/>
      <point x="188" y="158" type="curve"/>
      <point x="58" y="158" type="line"/>
      <point x="58" y="0"/>
      <point x="166" y="0"/>
      <point x="309" y="0" type="curve" smooth="yes"/>
    </contour>
    <contour>
      <point x="309" y="500" type="move" name="top"/>
    </contour>
    <contour>
      <point x="309" y="0" type="move" name="bottom"/>
    </contour>
  </outline>
</glyph>
<glyph name="u" format="1">
  <advance width="618"/>
  <unicode hex="0075"/>
  <note>
    u
  </note>
  <outline>
    <contour>
      <point x="554" y="0"/>
      <point x="560" y="7"/>
      <point x="560" y="240" type="curve" smooth="yes"/>
      <point x="560" y="500" type="line"/>
      <point x="430" y="500" type="line"/>
      <point x="430" y="240" type="line" smooth="yes"/>
      <point x="430" y="114"/>
      <point x="444" y="110"/>
      <point x="309" y="110" type="curve" smooth="yes"/>
      <point x="189" y="110"/>
      <point x="188" y="241"/>
      <point x="188" y="240" type="curve"/>
      <point x="188" y="500" type="line"/>
      <point x="58" y="500" type="line"/>
      <point x="58" y="240" type="line" smooth="yes"/>
      <point x="58" y="239"/>
      <point x="59" y="0"/>
      <point x="309" y="0" type="curve" smooth="yes"/>
    </contour>
    <contour>
      <point x="476" y="12" type="move" name="ogonek"/>
    </contour>
    <contour>
      <point x="309" y="500" type="move" name="top"/>
    </contour>
    <contour>
      <point x="597" y="500" type="move" name="topright"/>
    </contour>
    <contour>
      <point x="309" y="0" type="move" name="bottom"/>
    </contour>
  </outline>
</glyph>
<glyph name="bar" format="1">
  <advance width="618"/>
  <unicode hex="007C"/>
  <note>
    bar
  </note>
  <outline>
    <contour>
      <point x="374" y="-110" type="line"/>
      <point x="374" y="750" type="line"/>
      <point x="244" y="750" type="line"/>
      <point x="244" y="-110" type="line"/>
    </contour>
  </outline>
</glyph>
<glyph name="asciitilde" format="1">
  <advance width="618"/>
  <unicode hex="007E"/>
  <note>
    asciitilde
  </note>
  <outline>
    <contour>
      <point x="548" y="230"/>
      <point x="570" y="375"/>
      <point x="570" y="375" type="curve"/>
      <point x="440" y="375" type="line"/>
      <point x="440" y="375"/>
      <point x="440" y="340"/>
      <point x="402" y="340" type="curve" smooth="yes"/>
      <point x="354" y="340"/>
      <point x="354" y="430"/>
      <point x="216" y="430" type="curve" smooth="yes"/>
      <point x="68" y="430"/>
      <point x="48" y="285"/>
      <point x="48" y="285" type="curve"/>
      <point x="178" y="285" type="line"/>
      <point x="178" y="285"/>
      <point x="178" y="320"/>
      <point x="215" y="320" type="curve" smooth="yes"/>
      <point x="264" y="320"/>
      <point x="264" y="230"/>
      <point x="402" y="230" type="curve" smooth="yes"/>
    </contour>
  </outline>
</glyph>
<glyph name="cent" format="1">
  <advance width="618"/>
  <unicode hex="00A2"/>
  <note>
    cent
  </note>
  <outline>
    <contour>
      <point x="374" y="0" type="line"/>
      <point x="374" y="126" type="line"/>
      <point x="461" y="132"/>
      <point x="560" y="162"/>
      <point x="560" y="304" type="curve"/>
      <point x="430" y="304" type="line"/>
      <point x="430" y="265"/>
      <point x="416" y="246"/>
      <point x="374" y="238" type="curve"/>
      <point x="374" y="510" type="line"/>
      <point x="416" y="502"/>
      <point x="430" y="483"/>
      <point x="430" y="444" type="curve"/>
      <point x="560" y="444" type="line"/>
      <point x="560" y="586"/>
      <point x="461" y="616"/>
      <point x="374" y="622" type="curve"/>
      <point x="374" y="750" type="line"/>
      <point x="244" y="750" type="line"/>
      <point x="244" y="618" type="line"/>
      <point x="128" y="596"/>
      <point x="58" y="512"/>
      <point x="58" y="374" type="curve" smooth="yes"/>
      <point x="58" y="236"/>
      <point x="128" y="152"/>
      <point x="244" y="130" type="curve"/>
      <point x="244" y="0" type="line"/>
    </contour>
    <contour>
      <point x="209" y="273"/>
      <point x="188" y="315"/>
      <point x="188" y="374" type="curve" smooth="yes"/>
      <point x="188" y="433"/>
      <point x="209" y="475"/>
      <point x="244" y="497" type="curve"/>
      <point x="244" y="251" type="line"/>
    </contour>
  </outline>
</glyph>
<glyph name="uni00B3" format="1">
  <advance width="618"/>
  <unicode hex="00B3"/>
  <note>
    uni00B3
  </note>
  <outline>
    <contour>
      <point x="431" y="280"/>
      <point x="498" y="330"/>
      <point x="498" y="423" type="curve" smooth="yes"/>
      <point x="498" y="487"/>
      <point x="456" y="512"/>
      <point x="434" y="529" type="curve"/>
      <point x="455" y="549"/>
      <point x="482" y="574"/>
      <point x="482" y="620" type="curve" smooth="yes"/>
      <point x="482" y="701"/>
      <point x="417" y="750"/>
      <point x="309" y="750" type="curve" smooth="yes"/>
      <point x="197" y="750"/>
      <point x="137" y="698"/>
      <point x="137" y="610" type="curve"/>
      <point x="265" y="610" type="line"/>
      <point x="269" y="642"/>
      <point x="250" y="641"/>
      <point x="309" y="641" type="curve" smooth="yes"/>
      <point x="360" y="641"/>
      <point x="354" y="643"/>
      <point x="354" y="620" type="curve" smooth="yes"/>
      <point x="354" y="575"/>
      <point x="347" y="577"/>
      <point x="289" y="577" type="curve"/>
      <point x="289" y="482" type="line"/>
      <point x="358" y="483"/>
      <point x="369" y="481"/>
      <point x="369" y="423" type="curve" smooth="yes"/>
      <point x="369" y="389"/>
      <point x="373" y="389"/>
      <point x="309" y="389" type="curve" smooth="yes"/>
      <point x="239" y="389"/>
      <point x="250" y="389"/>
      <point x="249" y="433" type="curve"/>
      <point x="120" y="433" type="line"/>
      <point x="120" y="337"/>
      <point x="187" y="280"/>
      <point x="309" y="280" type="curve" smooth="yes"/>
    </contour>
  </outline>
</glyph>
<glyph name="paragraph" format="1">
  <advance width="618"/>
  <unicode hex="00B6"/>
  <note>
    paragraph
  </note>
  <outline>
    <contour>
      <point x="403" y="-10" type="line"/>
      <point x="403" y="640" type="line"/>
      <point x="436" y="640" type="line"/>
      <point x="436" y="-10" type="line"/>
      <point x="560" y="-10" type="line"/>
      <point x="560" y="750" type="line"/>
      <point x="264" y="750" type="line" smooth="yes"/>
      <point x="58" y="750"/>
      <point x="58" y="535"/>
      <point x="58" y="535" type="curve" smooth="yes"/>
      <point x="58" y="535"/>
      <point x="58" y="320"/>
      <point x="264" y="320" type="curve" smooth="yes"/>
      <point x="279" y="320" type="line"/>
      <point x="279" y="-10" type="line"/>
    </contour>
  </outline>
</glyph>
<glyph name="guillemetright" format="1">
  <advance width="618"/>
  <unicode hex="00BB"/>
  <note>
    guillemotright
  </note>
  <outline>
    <contour>
      <point x="560" y="283" type="line"/>
      <point x="560" y="377" type="line"/>
      <point x="289" y="617" type="line"/>
      <point x="289" y="477" type="line"/>
      <point x="412" y="330" type="line"/>
      <point x="289" y="183" type="line"/>
      <point x="289" y="43" type="line"/>
    </contour>
    <contour>
      <point x="329" y="283" type="line"/>
      <point x="329" y="377" type="line"/>
      <point x="58" y="617" type="line"/>
      <point x="58" y="477" type="line"/>
      <point x="181" y="330" type="line"/>
      <point x="58" y="183" type="line"/>
      <point x="58" y="43" type="line"/>
    </contour>
  </outline>
</glyph>
<glyph name="Eth" format="1">
  <advance width="618"/>
  <unicode hex="00D0"/>
  <note>
    Eth
  </note>
  <outline>
    <contour>
      <point x="374" y="320" type="line"/>
      <point x="374" y="430" type="line"/>
      <point x="188" y="430" type="line"/>
      <point x="188" y="320" type="line"/>
    </contour>
    <component base="D"/>
  </outline>
</glyph>
<glyph name="multiply" format="1">
  <advance width="618"/>
  <unicode hex="00D7"/>
  <note>
    multiply
  </note>
  <outline>
    <contour>
      <point x="309" y="370" type="line"/>
      <point x="453" y="224" type="line"/>
      <point x="537" y="308" type="line"/>
      <point x="393" y="455" type="line"/>
      <point x="537" y="602" type="line"/>
      <point x="453" y="686" type="line"/>
      <point x="309" y="540" type="line"/>
      <point x="165" y="686" type="line"/>
      <point x="81" y="602" type="line"/>
      <point x="225" y="455" type="line"/>
      <point x="81" y="308" type="line"/>
      <point x="165" y="224" type="line"/>
    </contour>
  </outline>
</glyph>
<glyph name="germandbls" format="1">
  <advance width="618"/>
  <unicode hex="00DF"/>
  <note>
    germandbls
  </note>
  <outline>
    <contour>
      <point x="199" y="0" type="line"/>
      <point x="199" y="547" type="line" smooth="yes"/>
      <point x="199" y="609"/>
      <point x="235" y="640"/>
      <point x="298" y="640" type="curve" smooth="yes"/>
      <point x="361" y="640"/>
      <point x="397" y="609"/>
      <point x="397" y="547" type="curve" smooth="yes"/>
      <point x="397" y="479"/>
      <point x="353" y="447"/>
      <point x="278" y="455" type="curve"/>
      <point x="278" y="343" type="line"/>
      <point x="373" y="350"/>
      <point x="419" y="316"/>
      <point x="419" y="227" type="curve" smooth="yes"/>
      <point x="419" y="138"/>
      <point x="373" y="104"/>
      <point x="278" y="111" type="curve"/>
      <point x="278" y="1" type="line"/>
      <point x="431" y="-9"/>
      <point x="549" y="88"/>
      <point x="549" y="227" type="curve" smooth="yes"/>
      <point x="549" y="341"/>
      <point x="490" y="369"/>
      <point x="460" y="398" type="curve"/>
      <point x="489" y="431"/>
      <point x="526" y="467"/>
      <point x="526" y="547" type="curve" smooth="yes"/>
      <point x="526" y="679"/>
      <point x="442" y="750"/>
      <point x="298" y="750" type="curve" smooth="yes"/>
      <point x="153" y="750"/>
      <point x="69" y="679"/>
      <point x="69" y="547" type="curve" smooth="yes"/>
      <point x="69" y="0" type="line"/>
    </contour>
  </outline>
</glyph>
<glyph name="ae" format="1">
  <advance width="618"/>
  <unicode hex="00E6"/>
  <note>
    ae
  </note>
  <outline>
    <contour>
      <point x="560" y="0" type="line"/>
      <point x="560" y="94" type="line"/>
      <point x="477" y="94" type="line" smooth="yes"/>
      <point x="377" y="94"/>
      <point x="374" y="98"/>
      <point x="374" y="202" type="curve"/>
      <point x="374" y="197" type="line"/>
      <point x="560" y="197" type="line"/>
      <point x="560" y="250" type="line" smooth="yes"/>
      <point x="560" y="487"/>
      <point x="556" y="500"/>
      <point x="405" y="500" type="curve" smooth="yes"/>
      <point x="351" y="500"/>
      <point x="311" y="500"/>
      <point x="288" y="481" type="curve"/>
      <point x="268" y="494"/>
      <point x="243" y="500"/>
      <point x="215" y="500" type="curve" smooth="yes"/>
      <point x="120" y="500"/>
      <point x="91" y="455"/>
      <point x="57" y="429" type="curve"/>
      <point x="107" y="342" type="line"/>
      <point x="161" y="386"/>
      <point x="174" y="394"/>
      <point x="215" y="394" type="curve" smooth="yes"/>
      <point x="243" y="394"/>
      <point x="244" y="393"/>
      <point x="244" y="340" type="curve" smooth="yes"/>
      <point x="244" y="303" type="line"/>
      <point x="215" y="303" type="line" smooth="yes"/>
      <point x="90" y="303"/>
      <point x="58" y="274"/>
      <point x="58" y="145" type="curve" smooth="yes"/>
      <point x="58" y="39"/>
      <point x="92" y="0"/>
      <point x="215" y="0" type="curve" smooth="yes"/>
    </contour>
    <contour>
      <point x="180" y="94"/>
      <point x="172" y="107"/>
      <point x="172" y="145" type="curve" smooth="yes"/>
      <point x="172" y="193"/>
      <point x="181" y="197"/>
      <point x="215" y="197" type="curve" smooth="yes"/>
      <point x="244" y="197" type="line"/>
      <point x="244" y="94" type="line"/>
      <point x="215" y="94" type="line" smooth="yes"/>
    </contour>
    <contour>
      <point x="374" y="344" type="line" smooth="yes"/>
      <point x="374" y="396"/>
      <point x="374" y="394"/>
      <point x="405" y="394" type="curve" smooth="yes"/>
      <point x="445" y="394"/>
      <point x="446" y="398"/>
      <point x="446" y="303" type="curve"/>
      <point x="374" y="303" type="line"/>
    </contour>
  </outline>
</glyph>
<glyph name="Eng" format="1">
  <advance width="618"/>
  <unicode hex="014A"/>
  <outline>
    <contour>
      <point x="486" y="-209"/>
      <point x="556" y="-88"/>
      <point x="559" y="0" type="curve"/>
      <point x="424" y="0" type="line"/>
      <point x="424" y="-88"/>
      <point x="390" y="-94"/>
      <point x="330" y="-97" type="curve"/>
      <point x="328" y="-207" type="line"/>
    </contour>
    <component base="N"/>
  </outline>
</glyph>
<glyph name="dotaccentcomb" format="1">
  <advance width="618"/>
  <unicode hex="0307"/>
  <outline>
    <contour>
      <point x="366" y="556"/>
      <point x="391" y="578"/>
      <point x="391" y="628" type="curve" smooth="yes"/>
      <point x="391" y="678"/>
      <point x="366" y="700"/>
      <point x="309" y="700" type="curve" smooth="yes"/>
      <point x="252" y="700"/>
      <point x="227" y="678"/>
      <point x="227" y="628" type="curve" smooth="yes"/>
      <point x="227" y="578"/>
      <point x="252" y="556"/>
      <point x="309" y="556" type="curve" smooth="yes"/>
    </contour>
    <contour>
      <point x="308" y="500" type="move" name="_top"/>
    </contour>
  </outline>
</glyph>
<glyph name="dieresiscomb" format="1">
  <advance width="618"/>
  <unicode hex="0308"/>
  <outline>
    <contour>
      <point x="491" y="556"/>
      <point x="516" y="578"/>
      <point x="516" y="628" type="curve" smooth="yes"/>
      <point x="516" y="678"/>
      <point x="491" y="700"/>
      <point x="434" y="700" type="curve" smooth="yes"/>
      <point x="377" y="700"/>
      <point x="352" y="678"/>
      <point x="352" y="628" type="curve" smooth="yes"/>
      <point x="352" y="578"/>
      <point x="377" y="556"/>
      <point x="434" y="556" type="curve" smooth="yes"/>
    </contour>
    <contour>
      <point x="242" y="556"/>
      <point x="266" y="578"/>
      <point x="266" y="628" type="curve" smooth="yes"/>
      <point x="266" y="678"/>
      <point x="242" y="700"/>
      <point x="185" y="700" type="curve" smooth="yes"/>
      <point x="128" y="700"/>
      <point x="102" y="677"/>
      <point x="102" y="628" type="curve" smooth="yes"/>
      <point x="102" y="579"/>
      <point x="128" y="556"/>
      <point x="185" y="556" type="curve" smooth="yes"/>
    </contour>
    <contour>
      <point x="308" y="500" type="move" name="_top"/>
    </contour>
  </outline>
</glyph>
<glyph name="ellipsis" format="1">
  <advance width="618"/>
  <unicode hex="2026"/>
  <note>
    ellipsis
  </note>
  <outline>
    <contour>
      <point x="568" y="0"/>
      <point x="618" y="50"/>
      <point x="618" y="100" type="curve" smooth="yes"/>
      <point x="618" y="150"/>
      <point x="568" y="200"/>
      <point x="518" y="200" type="curve" smooth="yes"/>
      <point x="468" y="200"/>
      <point x="418" y="150"/>
      <point x="418" y="100" type="curve" smooth="yes"/>
      <point x="418" y="50"/>
      <point x="468" y="0"/>
      <point x="518" y="0" type="curve" smooth="yes"/>
    </contour>
    <contour>
      <point x="150" y="0"/>
      <point x="200" y="50"/>
      <point x="200" y="100" type="curve" smooth="yes"/>
      <point x="200" y="150"/>
      <point x="150" y="200"/>
      <point x="100" y="200" type="curve" smooth="yes"/>
      <point x="50" y="200"/>
      <point x="0" y="150"/>
      <point x="0" y="100" type="curve" smooth="yes"/>
      <point x="0" y="50"/>
      <point x="50" y="0"/>
      <point x="100" y="0" type="curve" smooth="yes"/>
    </contour>
    <contour>
      <point x="359" y="0"/>
      <point x="409" y="50"/>
      <point x="409" y="100" type="curve" smooth="yes"/>
      <point x="409" y="150"/>
      <point x="359" y="200"/>
      <point x="309" y="200" type="curve" smooth="yes"/>
      <point x="259" y="200"/>
      <point x="209" y="150"/>
      <point x="209" y="100" type="curve" smooth="yes"/>
      <point x="209" y="50"/>
      <point x="259" y="0"/>
      <point x="309" y="0" type="curve" smooth="yes"/>
    </contour>
  </outline>
</glyph>
<glyph name="upblock" format="1">
  <advance width="618"/>
  <unicode hex="2580"/>
  <note>
    upblock
  </note>
  <outline>
    <contour>
      <point x="618" y="375" type="line"/>
      <point x="617" y="875" type="line"/>
      <point x="0" y="875" type="line"/>
      <point x="0" y="375" type="line"/>
    </contour>
  </outline>
</glyph>
<glyph name="uni2586" format="1">
  <advance width="618"/>
  <unicode hex="2586"/>
  <note>
    uni2586
  </note>
  <outline>
    <contour>
      <point x="618" y="-375" type="line"/>
      <point x="618" y="563" type="line"/>
      <point x="0" y="563" type="line"/>
      <point x="0" y="-375" type="line"/>
    </contour>
  </outline>
</glyph>
<glyph name="H18543" format="1">
  <advance width="618"/>
  <unicode hex="25AA"/>
  <note>
    H18543
  </note>
  <outline>
    <contour>
      <point x="484" y="200" type="line"/>
      <point x="484" y="550" type="line"/>
      <point x="134" y="550" type="line"/>
      <point x="134" y="200" type="line"/>
    </contour>
  </outline>
</glyph>
<glyph name="uni25FE" format="1">
  <advance width="618"/>
  <unicode hex="25FE"/>
  <note>
    uni25FE
  </note>
  <outline>
    <contour>
      <point x="459" y="225" type="line"/>
      <point x="459" y="525" type="line"/>
      <point x="159" y="525" type="line"/>
      <point x="159" y="225" type="line"/>
    </contour>
  </outline>
</glyph>
<glyph name="caroncomb.alt" format="1">
  <advance width="618"/>
  <outline>
    <contour>
      <point x="367" y="525" type="line"/>
      <point x="528" y="750" type="line"/>
      <point x="391" y="750" type="line"/>
      <point x="288" y="619" type="line"/>
      <point x="288" y="525" type="line"/>
    </contour>
    <contour>
      <point x="308" y="500" type="move" name="_topcaroncombalt"/>
    </contour>
  </outline>
</glyph>
